# xmcd CD database file
#
# Track frame offsets:
#	150
#	21450
#	43125
#	65475
#	86922
#	106200
#	122472
#	141450
#	163797
#	185247
#	206775
#	220797
#	241797
#
# Disc length: 3413 seconds
#
# Revision: 0
# Processed by: cddbd v1.5.2PL0 Copyright (c) Steve Scherf et al.
# Submitted via: CDex 1.70beta2
#
DISCID=c70d530d
DTITLE=Marlena Shaw - Dangerous
DYEAR=1900
DGENRE=Jazz
TTITLE0=Out Of This World
TTITLE1=Whisper Not
TTITLE2=OOO-WEE/Baby You're The One For Me
TTITLE3=Blackberry Winter
TTITLE4=Close Enough For Love
TTITLE5=Dangerous
TTITLE6=The Nearness Of You
TTITLE7=Dim The Lights
TTITLE8=You Make Me Feel Brand New
TTITLE9=You're My Everything
TTITLE10=Beautiful Friendship
TTITLE11=Give Me One More Chance
TTITLE12=Keep On Trustin'
EXTD=
EXTT0=
EXTT1=
EXTT2=
EXTT3=
EXTT4=
EXTT5=
EXTT6=
EXTT7=
EXTT8=
EXTT9=
EXTT10=
EXTT11=
EXTT12=
PLAYORDER=
